<svg xmlns="http://www.w3.org/2000/svg" version="1.1" xmlns:xlink="http://www.w3.org/1999/xlink" xmlns:svgjs="http://svgjs.dev/svgjs" width="1500" height="1105" viewBox="0 0 1500 1105"><g transform="matrix(1,0,0,1,0.08720937413113461,0.44736842105260166)"><svg viewBox="0 0 335 247" data-background-color="#ffffff" preserveAspectRatio="xMidYMid meet" height="1105" width="1500" xmlns="http://www.w3.org/2000/svg" xmlns:xlink="http://www.w3.org/1999/xlink"><g id="tight-bounds" transform="matrix(1,0,0,1,-0.019476760222630674,-0.09999999999999432)"><svg viewBox="0 0 335.03895352044526 247.2" height="247.2" width="335.03895352044526"><g><svg viewBox="0 0 335.03895352044526 247.2" height="247.2" width="335.03895352044526"><g><svg viewBox="0 0 395.52 291.8244071999633" height="247.2" width="335.03895352044526"><g transform="matrix(1,0,0,1,0,176.87757187843937)"><svg viewBox="0 0 395.52 114.94683532152392" height="114.94683532152392" width="395.52"><g id="textblocktransform"><svg viewBox="0 0 395.52 114.94683532152392" height="114.94683532152392" width="395.52" id="textblock"><g><svg viewBox="0 0 395.52 76.33577942735948" height="76.33577942735948" width="395.52"><g transform="matrix(1,0,0,1,0,0)"><svg width="395.52" viewBox="3.85 -35.9 235.73000000000002 45.5" height="76.33577942735948" data-palette-color="#4b91f1"><g class="wordmark-text-0" data-fill-palette-color="primary" id="text-0"><path d="M13.1-12.4L13.1-12.4 7.9-12.4 7.9 0 3.85 0 3.85-33.7 12.7-33.7Q18.55-33.7 21.93-30.68 25.3-27.65 25.3-22.85L25.3-22.85Q25.3-18.35 21.95-15.38 18.6-12.4 13.1-12.4ZM12.75-30.25L12.75-30.25 7.9-30.25 7.9-15.85 13.1-15.85Q16.9-15.85 19.05-17.82 21.2-19.8 21.2-22.85L21.2-22.85Q21.2-26.25 19-28.25 16.8-30.25 12.75-30.25ZM34.8-13.85L34.8 0 30.85 0 30.9-25.35 34.8-25.35 34.8-20.9Q36.8-25.6 41.7-25.6L41.7-25.6Q42.6-25.6 43.1-25.5L43.1-25.5 43.1-21.6Q42.05-21.95 40.95-21.95L40.95-21.95Q38.3-21.95 36.55-19.5 34.8-17.05 34.8-13.85L34.8-13.85ZM51.34-25.35L51.34 0 47.4 0 47.4-25.35 51.34-25.35ZM51.2-35.15Q51.95-34.4 51.95-33.3 51.95-32.2 51.2-31.48 50.45-30.75 49.34-30.75 48.25-30.75 47.52-31.48 46.8-32.2 46.8-33.3 46.8-34.4 47.52-35.15 48.25-35.9 49.34-35.9 50.45-35.9 51.2-35.15ZM79.19-25.35L70.14 0 65.29 0 56.44-25.35 60.54-25.35 64.04-14.65 67.74-3.1Q68.19-5.25 71.49-14.65L71.49-14.65 75.09-25.35 79.19-25.35ZM91.84-3.05L91.84-3.05Q94.54-3.05 96.14-4.58 97.74-6.1 97.74-8.45L97.74-8.45 97.74-11.7 93.34-11.7Q90.14-11.7 88.54-10.45 86.94-9.2 86.94-7.3 86.94-5.4 88.19-4.23 89.44-3.05 91.84-3.05ZM97.79 0L97.79-3Q95.84 0.25 90.69 0.25L90.69 0.25Q87.14 0.25 84.97-1.85 82.79-3.95 82.79-7.15L82.79-7.15Q82.79-10.8 85.56-12.83 88.34-14.85 93.14-14.85L93.14-14.85 97.74-14.85 97.74-16.15Q97.74-19.15 96.39-20.68 95.04-22.2 91.84-22.2L91.84-22.2Q87.79-22.2 84.64-20.05L84.64-20.05 84.64-24Q87.49-25.75 92.14-25.75L92.14-25.75Q101.69-25.75 101.69-16.05L101.69-16.05 101.69 0 97.79 0ZM121.39-4.4L121.39-0.65Q119.74 0.25 117.69 0.25L117.69 0.25Q110.19 0.25 110.19-7.4L110.19-7.4 110.19-22.15 106.14-22.15 106.14-25.35 110.19-25.35 110.19-31.65 114.14-31.65 114.14-25.35 121.14-25.35 121.14-22.15 114.14-22.15 114.14-7.3Q114.14-3.25 117.94-3.25L117.94-3.25Q119.89-3.25 121.39-4.4L121.39-4.4ZM145.63-5L145.63-1.3Q142.69 0.25 138.44 0.25L138.44 0.25Q132.69 0.25 129.16-3.28 125.64-6.8 125.64-12.6L125.64-12.6Q125.64-18.65 128.78-22.15 131.94-25.65 136.88-25.65L136.88-25.65Q141.63-25.65 144.44-22.6 147.24-19.55 147.24-13.95L147.24-13.95Q147.24-12.35 146.99-11L146.99-11 129.69-11Q130.13-7.25 132.53-5.25 134.94-3.25 138.84-3.25L138.84-3.25Q143.09-3.25 145.63-5L145.63-5ZM136.88-22.2L136.88-22.2Q134.03-22.2 132.03-20.15 130.03-18.1 129.69-14.3L129.69-14.3 143.28-14.3 143.28-15.3Q143.28-18.45 141.59-20.33 139.88-22.2 136.88-22.2ZM162.68-12.4L162.68-12.4 157.48-12.4 157.48 0 153.43 0 153.43-33.7 162.28-33.7Q168.13-33.7 171.51-30.68 174.88-27.65 174.88-22.85L174.88-22.85Q174.88-18.35 171.53-15.38 168.18-12.4 162.68-12.4ZM162.33-30.25L162.33-30.25 157.48-30.25 157.48-15.85 162.68-15.85Q166.48-15.85 168.63-17.82 170.78-19.8 170.78-22.85L170.78-22.85Q170.78-26.25 168.58-28.25 166.38-30.25 162.33-30.25ZM184.63-25.35L184.63 0 180.68 0 180.68-25.35 184.63-25.35ZM184.48-35.15Q185.23-34.4 185.23-33.3 185.23-32.2 184.48-31.48 183.73-30.75 182.63-30.75 181.53-30.75 180.81-31.48 180.08-32.2 180.08-33.3 180.08-34.4 180.81-35.15 181.53-35.9 182.63-35.9 183.73-35.9 184.48-35.15ZM212.13-17.45L212.13 0 208.18 0 208.18-16.4Q208.18-19.2 206.75-20.68 205.33-22.15 203.03-22.15L203.03-22.15Q200.18-22.15 198.1-19.95 196.03-17.75 196.03-13.85L196.03-13.85 196.03 0 192.13 0 192.13-25.35 196.03-25.35 196.03-20.95Q198.28-25.7 204.03-25.7L204.03-25.7Q207.73-25.7 209.93-23.45 212.13-21.2 212.13-17.45L212.13-17.45ZM239.58-25.35L239.58-2.05Q239.58 3.75 236.38 6.68 233.18 9.6 228.13 9.6L228.13 9.6Q223.53 9.6 220.28 8.05L220.28 8.05 220.28 4.1Q223.48 5.95 227.78 5.95L227.78 5.95Q231.43 5.95 233.53 4 235.63 2.05 235.63-2.1L235.63-2.1 235.63-4.95Q233.13-0.65 228.18-0.65L228.18-0.65Q223.83-0.65 220.75-3.85 217.68-7.05 217.68-12.75L217.68-12.75Q217.68-18.4 220.53-22.05 223.38-25.7 227.98-25.7L227.98-25.7Q233.18-25.7 235.63-21.15L235.63-21.15 235.63-25.35 239.58-25.35ZM221.78-12.85L221.78-12.85Q221.78-8.6 223.88-6.38 225.98-4.15 228.63-4.15L228.63-4.15Q231.38-4.15 233.5-6.28 235.63-8.4 235.63-12.6L235.63-12.6Q235.63-17.45 233.58-19.8 231.53-22.15 228.83-22.15L228.83-22.15Q225.58-22.15 223.68-19.58 221.78-17 221.78-12.85Z" fill="#4b91f1" data-fill-palette-color="primary"></path></g></svg></g></svg></g><g transform="matrix(1,0,0,1,75.54432,94.3568248914528)"><svg viewBox="0 0 244.43135999999998 20.590010430071114" height="20.590010430071114" width="244.43135999999998"><g transform="matrix(1,0,0,1,0,0)"><svg width="244.43135999999998" viewBox="1 -38.15 590.53 49.75" height="20.590010430071114" data-palette-color="#4b91f1"><path d="M2.9 0L2.9 0Q2.5 0 2.05-0.18 1.6-0.35 1.3-0.68 1-1 1-1.4L1-1.4Q1-1.6 1.05-1.75L1.05-1.75 11.5-35.7Q11.7-36.3 12.25-36.58 12.8-36.85 13.45-36.85L13.45-36.85Q14.15-36.85 14.73-36.55 15.3-36.25 15.45-35.7L15.45-35.7 25.85-1.75Q25.9-1.6 25.9-1.45L25.9-1.45Q25.9-1.05 25.6-0.73 25.3-0.4 24.85-0.2 24.4 0 23.9 0L23.9 0Q23.5 0 23.15-0.2 22.8-0.4 22.7-0.85L22.7-0.85 20.35-8.55 6.55-8.55 4.25-0.85Q4.1-0.4 3.75-0.2 3.4 0 2.9 0ZM13.45-31.55L7.35-11.4 19.5-11.4 13.45-31.55ZM48.95 0.35L48.95 0.35Q45.75 0.35 43.45-0.63 41.15-1.6 39.92-2.88 38.7-4.15 38.7-5.05L38.7-5.05Q38.7-5.45 38.92-5.9 39.15-6.35 39.5-6.63 39.85-6.9 40.2-6.9L40.2-6.9Q40.7-6.9 41.22-6.28 41.75-5.65 42.62-4.83 43.5-4 44.95-3.38 46.4-2.75 48.75-2.75L48.75-2.75Q51.1-2.75 52.77-3.53 54.45-4.3 55.32-5.83 56.2-7.35 56.2-9.65L56.2-9.65Q56.2-12.05 55.3-13.53 54.4-15 52.92-15.93 51.45-16.85 49.7-17.53 47.95-18.2 46.17-18.88 44.4-19.55 42.92-20.58 41.45-21.6 40.52-23.28 39.6-24.95 39.6-27.55L39.6-27.55Q39.6-30.3 40.6-32.05 41.6-33.8 43.17-34.8 44.75-35.8 46.6-36.23 48.45-36.65 50.2-36.65L50.2-36.65Q51.6-36.65 53.07-36.43 54.55-36.2 55.8-35.8 57.05-35.4 57.82-34.85 58.6-34.3 58.6-33.6L58.6-33.6Q58.6-33.25 58.42-32.83 58.25-32.4 57.95-32.08 57.65-31.75 57.15-31.75L57.15-31.75Q56.7-31.75 55.9-32.23 55.09-32.7 53.72-33.18 52.35-33.65 50.15-33.65L50.15-33.65Q48.35-33.65 46.67-33.13 45-32.6 43.95-31.35 42.9-30.1 42.9-27.85L42.9-27.85Q42.9-25.85 43.82-24.63 44.75-23.4 46.22-22.65 47.7-21.9 49.45-21.28 51.2-20.65 52.97-19.88 54.75-19.1 56.22-17.93 57.7-16.75 58.6-14.85 59.5-12.95 59.5-9.95L59.5-9.95Q59.5-6.4 58.15-4.13 56.8-1.85 54.42-0.75 52.05 0.35 48.95 0.35ZM74.59 0.35L74.59 0.35Q71.44 0.35 69.02-0.85 66.59-2.05 65.22-4.17 63.84-6.3 63.84-9.15L63.84-9.15 63.84-14.75Q63.84-17.25 65.14-19.35 66.44-21.45 68.62-22.7 70.79-23.95 73.39-23.95L73.39-23.95Q75.89-23.95 78.02-22.78 80.14-21.6 81.44-19.55 82.74-17.5 82.74-14.85L82.74-14.85Q82.74-12.9 82.09-12.08 81.44-11.25 80.47-11.05 79.49-10.85 78.39-10.85L78.39-10.85 67.09-10.85 67.09-9Q67.09-6 69.24-4.25 71.39-2.5 74.69-2.5L74.69-2.5Q76.69-2.5 77.79-3 78.89-3.5 79.52-4 80.14-4.5 80.69-4.5L80.69-4.5Q81.09-4.5 81.42-4.23 81.74-3.95 81.92-3.6 82.09-3.25 82.09-2.95L82.09-2.95Q82.09-2.4 81.19-1.6 80.29-0.8 78.59-0.23 76.89 0.35 74.59 0.35ZM67.09-15.15L67.09-13.25 77.09-13.25Q78.59-13.25 79.09-13.58 79.59-13.9 79.59-14.95L79.59-14.95Q79.59-16.55 78.82-18 78.04-19.45 76.62-20.35 75.19-21.25 73.34-21.25L73.34-21.25Q71.64-21.25 70.22-20.43 68.79-19.6 67.94-18.23 67.09-16.85 67.09-15.15L67.09-15.15ZM96.49 0.35L96.49 0.35Q93.19 0.35 91.04-0.9 88.89-2.15 87.84-4.3 86.79-6.45 86.79-9.15L86.79-9.15 86.79-14.5Q86.79-17.15 87.82-19.3 88.84-21.45 91.02-22.7 93.19-23.95 96.49-23.95L96.49-23.95Q98.59-23.95 100.17-23.43 101.74-22.9 102.62-22.15 103.49-21.4 103.49-20.7L103.49-20.7Q103.49-20.4 103.32-20.03 103.14-19.65 102.82-19.38 102.49-19.1 102.09-19.1L102.09-19.1Q101.64-19.1 101.07-19.58 100.49-20.05 99.49-20.5 98.49-20.95 96.64-20.95L96.64-20.95Q93.39-20.95 91.72-19.23 90.04-17.5 90.04-14.5L90.04-14.5 90.04-9.15Q90.04-6.1 91.72-4.38 93.39-2.65 96.69-2.65L96.69-2.65Q98.59-2.65 99.64-3.13 100.69-3.6 101.27-4.08 101.84-4.55 102.34-4.55L102.34-4.55Q102.79-4.55 103.12-4.3 103.44-4.05 103.62-3.7 103.79-3.35 103.79-2.95L103.79-2.95Q103.79-2.3 102.89-1.53 101.99-0.75 100.37-0.2 98.74 0.35 96.49 0.35ZM117.54 0.35L117.54 0.35Q114.89 0.35 112.74-0.95 110.59-2.25 109.29-4.42 107.99-6.6 107.99-9.05L107.99-9.05 107.99-22.4Q107.99-22.85 108.49-23.25 108.99-23.65 109.64-23.65L109.64-23.65Q110.29-23.65 110.76-23.25 111.24-22.85 111.24-22.4L111.24-22.4 111.24-9.05Q111.24-7.4 112.09-5.95 112.94-4.5 114.34-3.58 115.74-2.65 117.49-2.65L117.49-2.65Q119.29-2.65 120.69-3.55 122.09-4.45 122.91-5.93 123.74-7.4 123.74-9.05L123.74-9.05 123.74-22.45Q123.74-22.95 124.24-23.3 124.74-23.65 125.39-23.65L125.39-23.65Q126.14-23.65 126.56-23.3 126.99-22.95 126.99-22.45L126.99-22.45 126.99-9.05Q126.99-6.5 125.71-4.38 124.44-2.25 122.26-0.95 120.09 0.35 117.54 0.35ZM134.59 0L134.59 0Q133.94 0 133.46-0.4 132.99-0.8 132.99-1.3L132.99-1.3 132.99-22.45Q132.99-23 133.46-23.33 133.94-23.65 134.59-23.65L134.59-23.65Q135.24-23.65 135.69-23.33 136.14-23 136.14-22.45L136.14-22.45 136.14-20Q136.69-21 137.64-21.9 138.59-22.8 139.89-23.38 141.19-23.95 142.84-23.95L142.84-23.95 144.59-23.95Q145.14-23.95 145.51-23.53 145.89-23.1 145.89-22.45L145.89-22.45Q145.89-21.85 145.51-21.4 145.14-20.95 144.59-20.95L144.59-20.95 142.84-20.95Q141.19-20.95 139.66-20.08 138.14-19.2 137.19-17.57 136.24-15.95 136.24-13.65L136.24-13.65 136.24-1.3Q136.24-0.8 135.76-0.4 135.29 0 134.59 0ZM158.33 0.35L158.33 0.35Q155.18 0.35 152.76-0.85 150.33-2.05 148.96-4.17 147.58-6.3 147.58-9.15L147.58-9.15 147.58-14.75Q147.58-17.25 148.88-19.35 150.18-21.45 152.36-22.7 154.53-23.95 157.13-23.95L157.13-23.95Q159.63-23.95 161.76-22.78 163.88-21.6 165.18-19.55 166.48-17.5 166.48-14.85L166.48-14.85Q166.48-12.9 165.83-12.08 165.18-11.25 164.21-11.05 163.23-10.85 162.13-10.85L162.13-10.85 150.83-10.85 150.83-9Q150.83-6 152.98-4.25 155.13-2.5 158.43-2.5L158.43-2.5Q160.43-2.5 161.53-3 162.63-3.5 163.26-4 163.88-4.5 164.43-4.5L164.43-4.5Q164.83-4.5 165.16-4.23 165.48-3.95 165.66-3.6 165.83-3.25 165.83-2.95L165.83-2.95Q165.83-2.4 164.93-1.6 164.03-0.8 162.33-0.23 160.63 0.35 158.33 0.35ZM150.83-15.15L150.83-13.25 160.83-13.25Q162.33-13.25 162.83-13.58 163.33-13.9 163.33-14.95L163.33-14.95Q163.33-16.55 162.56-18 161.78-19.45 160.36-20.35 158.93-21.25 157.08-21.25L157.08-21.25Q155.38-21.25 153.96-20.43 152.53-19.6 151.68-18.23 150.83-16.85 150.83-15.15L150.83-15.15ZM183.68 0L183.68 0Q183.03 0 182.53-0.33 182.03-0.65 182.03-1.3L182.03-1.3 182.03-34.95Q182.03-35.85 182.53-36.2 183.03-36.55 183.68-36.55L183.68-36.55Q184.28-36.55 184.75-36.23 185.23-35.9 185.63-35.38 186.03-34.85 186.33-34.25L186.33-34.25 194.93-17.65 203.53-34.25Q203.88-34.85 204.25-35.38 204.63-35.9 205.13-36.23 205.63-36.55 206.18-36.55L206.18-36.55Q206.88-36.55 207.35-36.2 207.83-35.85 207.83-34.95L207.83-34.95 207.83-1.3Q207.83-0.65 207.33-0.33 206.83 0 206.18 0L206.18 0Q205.58 0 205.05-0.33 204.53-0.65 204.53-1.3L204.53-1.3 204.53-29.4 196.23-13.7Q195.93-13.15 195.58-12.9 195.23-12.65 194.88-12.65L194.88-12.65Q194.58-12.65 194.23-12.88 193.88-13.1 193.58-13.7L193.58-13.7 185.33-29.55 185.33-1.3Q185.33-0.65 184.8-0.33 184.28 0 183.68 0ZM224.43 0.35L224.43 0.35Q221.28 0.35 218.85-0.85 216.43-2.05 215.05-4.17 213.68-6.3 213.68-9.15L213.68-9.15 213.68-14.75Q213.68-17.25 214.98-19.35 216.28-21.45 218.45-22.7 220.63-23.95 223.23-23.95L223.23-23.95Q225.73-23.95 227.85-22.78 229.98-21.6 231.28-19.55 232.58-17.5 232.58-14.85L232.58-14.85Q232.58-12.9 231.93-12.08 231.28-11.25 230.3-11.05 229.33-10.85 228.23-10.85L228.23-10.85 216.93-10.85 216.93-9Q216.93-6 219.08-4.25 221.23-2.5 224.53-2.5L224.53-2.5Q226.53-2.5 227.63-3 228.73-3.5 229.35-4 229.98-4.5 230.53-4.5L230.53-4.5Q230.93-4.5 231.25-4.23 231.58-3.95 231.75-3.6 231.93-3.25 231.93-2.95L231.93-2.95Q231.93-2.4 231.03-1.6 230.13-0.8 228.43-0.23 226.73 0.35 224.43 0.35ZM216.93-15.15L216.93-13.25 226.93-13.25Q228.43-13.25 228.93-13.58 229.43-13.9 229.43-14.95L229.43-14.95Q229.43-16.55 228.65-18 227.88-19.45 226.45-20.35 225.03-21.25 223.18-21.25L223.18-21.25Q221.48-21.25 220.05-20.43 218.63-19.6 217.78-18.23 216.93-16.85 216.93-15.15L216.93-15.15ZM243.87 0.35L243.87 0.35Q241.52 0.35 239.77-0.25 238.02-0.85 237.02-1.68 236.02-2.5 236.02-3.25L236.02-3.25Q236.02-3.6 236.17-3.93 236.32-4.25 236.6-4.5 236.87-4.75 237.17-4.75L237.17-4.75Q237.72-4.75 238.4-4.17 239.07-3.6 240.3-3 241.52-2.4 243.77-2.4L243.77-2.4Q246.62-2.4 247.77-3.48 248.92-4.55 248.92-5.95L248.92-5.95Q248.92-7.6 248.05-8.53 247.17-9.45 245.75-9.98 244.32-10.5 242.75-10.93 241.17-11.35 239.75-12.03 238.32-12.7 237.45-13.9 236.57-15.1 236.57-17.15L236.57-17.15Q236.57-18.75 237.37-20.33 238.17-21.9 239.9-22.93 241.62-23.95 244.47-23.95L244.47-23.95Q246.12-23.95 247.67-23.6 249.22-23.25 250.2-22.68 251.17-22.1 251.17-21.5L251.17-21.5Q251.17-21.25 251-20.85 250.82-20.45 250.52-20.13 250.22-19.8 249.82-19.8L249.82-19.8Q249.42-19.8 248.75-20.18 248.07-20.55 247.02-20.88 245.97-21.2 244.52-21.2L244.52-21.2Q242.72-21.2 241.62-20.55 240.52-19.9 240.02-19.03 239.52-18.15 239.52-17.3L239.52-17.3Q239.52-15.85 240.42-15.1 241.32-14.35 242.75-13.88 244.17-13.4 245.75-12.98 247.32-12.55 248.75-11.8 250.17-11.05 251.05-9.7 251.92-8.35 251.92-6.1L251.92-6.1Q251.92-3.15 249.82-1.4 247.72 0.35 243.87 0.35ZM263.22 0.35L263.22 0.35Q260.87 0.35 259.12-0.25 257.37-0.85 256.37-1.68 255.37-2.5 255.37-3.25L255.37-3.25Q255.37-3.6 255.52-3.93 255.67-4.25 255.95-4.5 256.22-4.75 256.52-4.75L256.52-4.75Q257.07-4.75 257.75-4.17 258.42-3.6 259.65-3 260.87-2.4 263.12-2.4L263.12-2.4Q265.97-2.4 267.12-3.48 268.27-4.55 268.27-5.95L268.27-5.95Q268.27-7.6 267.4-8.53 266.52-9.45 265.1-9.98 263.67-10.5 262.1-10.93 260.52-11.35 259.1-12.03 257.67-12.7 256.8-13.9 255.92-15.1 255.92-17.15L255.92-17.15Q255.92-18.75 256.72-20.33 257.52-21.9 259.25-22.93 260.97-23.95 263.82-23.95L263.82-23.95Q265.47-23.95 267.02-23.6 268.57-23.25 269.55-22.68 270.52-22.1 270.52-21.5L270.52-21.5Q270.52-21.25 270.35-20.85 270.17-20.45 269.87-20.13 269.57-19.8 269.17-19.8L269.17-19.8Q268.77-19.8 268.1-20.18 267.42-20.55 266.37-20.88 265.32-21.2 263.87-21.2L263.87-21.2Q262.07-21.2 260.97-20.55 259.87-19.9 259.37-19.03 258.87-18.15 258.87-17.3L258.87-17.3Q258.87-15.85 259.77-15.1 260.67-14.35 262.1-13.88 263.52-13.4 265.1-12.98 266.67-12.55 268.1-11.8 269.52-11.05 270.4-9.7 271.27-8.35 271.27-6.1L271.27-6.1Q271.27-3.15 269.17-1.4 267.07 0.35 263.22 0.35ZM281.37 0.35L281.37 0.35Q278.57 0.35 276.57-1.28 274.57-2.9 274.57-6.25L274.57-6.25Q274.57-9 276.04-10.48 277.52-11.95 280.14-12.53 282.77-13.1 286.22-13.1L286.22-13.1 288.77-13.1 288.77-14.3Q288.77-15.9 288.19-17.48 287.62-19.05 286.34-20.08 285.07-21.1 282.87-21.1L282.87-21.1Q281.22-21.1 280.17-20.75 279.12-20.4 278.52-20.03 277.92-19.65 277.52-19.65L277.52-19.65Q276.92-19.65 276.57-20.25 276.22-20.85 276.22-21.4L276.22-21.4Q276.22-22.05 277.24-22.63 278.27-23.2 279.84-23.58 281.42-23.95 282.97-23.95L282.97-23.95Q286.32-23.95 288.29-22.58 290.27-21.2 291.14-19 292.02-16.8 292.02-14.3L292.02-14.3 292.02-1.3Q292.02-0.75 291.59-0.38 291.17 0 290.42 0L290.42 0Q289.82 0 289.37-0.38 288.92-0.75 288.92-1.3L288.92-1.3 288.92-3.5Q287.62-2.05 285.77-0.85 283.92 0.35 281.37 0.35ZM282.17-2.4L282.17-2.4Q283.82-2.4 285.32-3.25 286.82-4.1 287.79-5.33 288.77-6.55 288.77-7.65L288.77-7.65 288.77-10.85 286.67-10.85Q284.42-10.85 282.39-10.58 280.37-10.3 279.09-9.4 277.82-8.5 277.82-6.55L277.82-6.55Q277.82-4.4 279.09-3.4 280.37-2.4 282.17-2.4ZM306.42 11.6L306.42 11.6Q303.47 11.6 301.19 10.78 298.92 9.95 297.59 8.47 296.27 7 296.27 4.95L296.27 4.95Q296.27 2.75 297.56 1.45 298.87 0.15 300.52-0.5L300.52-0.5Q299.31-0.95 298.54-1.73 297.77-2.5 297.77-3.95L297.77-3.95Q297.77-5.35 298.47-6.18 299.17-7 300.27-7.55L300.27-7.55Q298.92-8.65 298.22-10.28 297.52-11.9 297.52-13.85L297.52-13.85 297.52-15.75Q297.52-18.15 298.56-20 299.62-21.85 301.56-22.9 303.52-23.95 306.12-23.95L306.12-23.95Q307.87-23.95 309.37-23.4 310.87-22.85 311.97-21.85L311.97-21.85Q312.72-23.4 313.67-24.2 314.62-25 315.52-25L315.52-25Q316.27-25 316.64-24.58 317.02-24.15 317.02-23.7L317.02-23.7Q317.02-23.25 316.77-22.98 316.52-22.7 316.17-22.6L316.17-22.6Q315.56-22.5 314.79-22.05 314.02-21.6 313.37-20.45L313.37-20.45Q314.06-19.5 314.42-18.3 314.77-17.1 314.77-15.75L314.77-15.75 314.77-13.85Q314.77-11.5 313.67-9.6 312.56-7.7 310.59-6.63 308.62-5.55 306.06-5.55L306.06-5.55Q303.92-5.55 302.22-6.4L302.22-6.4Q301.67-6.1 301.17-5.68 300.67-5.25 300.67-4.45L300.67-4.45Q300.67-3.35 301.81-2.85 302.97-2.35 304.72-2.15 306.47-1.95 308.44-1.73 310.42-1.5 312.19-0.9 313.97-0.3 315.09 0.95 316.22 2.2 316.22 4.5L316.22 4.5Q316.22 6.85 314.94 8.43 313.67 10 311.47 10.8 309.27 11.6 306.42 11.6ZM306.37 9.15L306.37 9.15Q309.52 9.15 311.29 7.9 313.06 6.65 313.06 4.6L313.06 4.6Q313.06 3 312.09 2.18 311.12 1.35 309.64 1 308.17 0.65 306.59 0.5 305.02 0.35 303.87 0.2L303.87 0.2Q302.12 0.75 300.77 1.8 299.42 2.85 299.42 4.65L299.42 4.65Q299.42 6.65 301.27 7.9 303.12 9.15 306.37 9.15ZM306.17-8L306.17-8Q308.72-8 310.14-9.68 311.56-11.35 311.56-13.85L311.56-13.85 311.56-15.75Q311.56-18.2 310.14-19.85 308.72-21.5 306.12-21.5L306.12-21.5Q303.52-21.5 302.09-19.85 300.67-18.2 300.67-15.75L300.67-15.75 300.67-13.9Q300.67-11.4 302.12-9.7 303.56-8 306.17-8ZM322.36-30.65L322.36-30.65Q321.46-30.65 320.81-31.28 320.16-31.9 320.16-32.75L320.16-32.75Q320.16-33.6 320.81-34.2 321.46-34.8 322.36-34.8L322.36-34.8Q323.26-34.8 323.91-34.2 324.56-33.6 324.56-32.75L324.56-32.75Q324.56-31.9 323.91-31.28 323.26-30.65 322.36-30.65ZM322.31 0L322.31 0Q321.66 0 321.19-0.4 320.71-0.8 320.71-1.3L320.71-1.3 320.71-22.45Q320.71-23 321.19-23.33 321.66-23.65 322.31-23.65L322.31-23.65Q323.01-23.65 323.49-23.33 323.96-23 323.96-22.45L323.96-22.45 323.96-1.3Q323.96-0.8 323.49-0.4 323.01 0 322.31 0ZM331.76 0L331.76 0Q331.11 0 330.63-0.4 330.16-0.8 330.16-1.3L330.16-1.3 330.16-22.45Q330.16-23 330.63-23.33 331.11-23.65 331.76-23.65L331.76-23.65Q332.41-23.65 332.86-23.33 333.31-23 333.31-22.45L333.31-22.45 333.31-20.15Q334.11-21.6 335.81-22.78 337.51-23.95 340.01-23.95L340.01-23.95Q342.41-23.95 344.44-22.68 346.46-21.4 347.66-19.3 348.86-17.2 348.86-14.6L348.86-14.6 348.86-1.3Q348.86-0.65 348.36-0.33 347.86 0 347.21 0L347.21 0Q346.66 0 346.13-0.33 345.61-0.65 345.61-1.3L345.61-1.3 345.61-14.6Q345.61-16.2 344.76-17.65 343.91-19.1 342.51-20.03 341.11-20.95 339.41-20.95L339.41-20.95Q337.91-20.95 336.54-20.18 335.16-19.4 334.29-18 333.41-16.6 333.41-14.6L333.41-14.6 333.41-1.3Q333.41-0.8 332.94-0.4 332.46 0 331.76 0ZM363.26 11.6L363.26 11.6Q360.31 11.6 358.03 10.78 355.76 9.95 354.43 8.47 353.11 7 353.11 4.95L353.11 4.95Q353.11 2.75 354.41 1.45 355.71 0.15 357.36-0.5L357.36-0.5Q356.16-0.95 355.38-1.73 354.61-2.5 354.61-3.95L354.61-3.95Q354.61-5.35 355.31-6.18 356.01-7 357.11-7.55L357.11-7.55Q355.76-8.65 355.06-10.28 354.36-11.9 354.36-13.85L354.36-13.85 354.36-15.75Q354.36-18.15 355.41-20 356.46-21.85 358.41-22.9 360.36-23.95 362.96-23.95L362.96-23.95Q364.71-23.95 366.21-23.4 367.71-22.85 368.81-21.85L368.81-21.85Q369.56-23.4 370.51-24.2 371.46-25 372.36-25L372.36-25Q373.11-25 373.48-24.58 373.86-24.15 373.86-23.7L373.86-23.7Q373.86-23.25 373.61-22.98 373.36-22.7 373.01-22.6L373.01-22.6Q372.41-22.5 371.63-22.05 370.86-21.6 370.21-20.45L370.21-20.45Q370.91-19.5 371.26-18.3 371.61-17.1 371.61-15.75L371.61-15.75 371.61-13.85Q371.61-11.5 370.51-9.6 369.41-7.7 367.43-6.63 365.46-5.55 362.91-5.55L362.91-5.55Q360.76-5.55 359.06-6.4L359.06-6.4Q358.51-6.1 358.01-5.68 357.51-5.25 357.51-4.45L357.51-4.45Q357.51-3.35 358.66-2.85 359.81-2.35 361.56-2.15 363.31-1.95 365.28-1.73 367.26-1.5 369.03-0.9 370.81-0.3 371.93 0.95 373.06 2.2 373.06 4.5L373.06 4.5Q373.06 6.85 371.78 8.43 370.51 10 368.31 10.8 366.11 11.6 363.26 11.6ZM363.21 9.15L363.21 9.15Q366.36 9.15 368.13 7.9 369.91 6.65 369.91 4.6L369.91 4.6Q369.91 3 368.93 2.18 367.96 1.35 366.48 1 365.01 0.65 363.43 0.5 361.86 0.35 360.71 0.2L360.71 0.2Q358.96 0.75 357.61 1.8 356.26 2.85 356.26 4.65L356.26 4.65Q356.26 6.65 358.11 7.9 359.96 9.15 363.21 9.15ZM363.01-8L363.01-8Q365.56-8 366.98-9.68 368.41-11.35 368.41-13.85L368.41-13.85 368.41-15.75Q368.41-18.2 366.98-19.85 365.56-21.5 362.96-21.5L362.96-21.5Q360.36-21.5 358.93-19.85 357.51-18.2 357.51-15.75L357.51-15.75 357.51-13.9Q357.51-11.4 358.96-9.7 360.41-8 363.01-8ZM387.35 0L387.35 0Q386.95 0 386.5-0.18 386.05-0.35 385.75-0.68 385.45-1 385.45-1.4L385.45-1.4Q385.45-1.6 385.5-1.75L385.5-1.75 395.95-35.7Q396.15-36.3 396.7-36.58 397.25-36.85 397.9-36.85L397.9-36.85Q398.6-36.85 399.18-36.55 399.75-36.25 399.9-35.7L399.9-35.7 410.3-1.75Q410.35-1.6 410.35-1.45L410.35-1.45Q410.35-1.05 410.05-0.73 409.75-0.4 409.3-0.2 408.85 0 408.35 0L408.35 0Q407.95 0 407.6-0.2 407.25-0.4 407.15-0.85L407.15-0.85 404.8-8.55 391-8.55 388.7-0.85Q388.55-0.4 388.2-0.2 387.85 0 387.35 0ZM397.9-31.55L391.8-11.4 403.95-11.4 397.9-31.55ZM416.1 11.6L416.1 11.6Q415.45 11.6 414.97 11.2 414.5 10.8 414.5 10.3L414.5 10.3 414.5-22.45Q414.5-23 414.97-23.33 415.45-23.65 416.1-23.65L416.1-23.65Q416.75-23.65 417.2-23.33 417.65-23 417.65-22.45L417.65-22.45 417.65-20.15Q418.5-21.6 420.2-22.78 421.9-23.95 424.35-23.95L424.35-23.95Q426.85-23.95 428.87-22.68 430.9-21.4 432.12-19.3 433.35-17.2 433.35-14.6L433.35-14.6 433.35-9.15Q433.35-6.7 432.12-4.5 430.9-2.3 428.9-0.98 426.9 0.35 424.5 0.35L424.5 0.35Q422.2 0.35 420.4-0.8 418.6-1.95 417.75-3.5L417.75-3.5 417.75 10.3Q417.75 10.8 417.27 11.2 416.8 11.6 416.1 11.6ZM423.9-2.65L423.9-2.65Q425.55-2.65 426.95-3.58 428.35-4.5 429.22-6 430.1-7.5 430.1-9.15L430.1-9.15 430.1-14.6Q430.1-16.2 429.25-17.65 428.4-19.1 426.97-20.03 425.55-20.95 423.8-20.95L423.8-20.95Q422.3-20.95 420.92-20.18 419.55-19.4 418.65-18 417.75-16.6 417.75-14.6L417.75-14.6 417.75-7.6Q417.75-6.85 418.55-5.68 419.35-4.5 420.75-3.58 422.15-2.65 423.9-2.65ZM440.3 11.6L440.3 11.6Q439.65 11.6 439.17 11.2 438.7 10.8 438.7 10.3L438.7 10.3 438.7-22.45Q438.7-23 439.17-23.33 439.65-23.65 440.3-23.65L440.3-23.65Q440.95-23.65 441.4-23.33 441.85-23 441.85-22.45L441.85-22.45 441.85-20.15Q442.7-21.6 444.4-22.78 446.1-23.95 448.55-23.95L448.55-23.95Q451.05-23.95 453.07-22.68 455.1-21.4 456.32-19.3 457.55-17.2 457.55-14.6L457.55-14.6 457.55-9.15Q457.55-6.7 456.32-4.5 455.1-2.3 453.1-0.98 451.1 0.35 448.7 0.35L448.7 0.35Q446.4 0.35 444.6-0.8 442.8-1.95 441.95-3.5L441.95-3.5 441.95 10.3Q441.95 10.8 441.47 11.2 441 11.6 440.3 11.6ZM448.1-2.65L448.1-2.65Q449.75-2.65 451.15-3.58 452.55-4.5 453.42-6 454.3-7.5 454.3-9.15L454.3-9.15 454.3-14.6Q454.3-16.2 453.45-17.65 452.6-19.1 451.17-20.03 449.75-20.95 448-20.95L448-20.95Q446.5-20.95 445.12-20.18 443.75-19.4 442.85-18 441.95-16.6 441.95-14.6L441.95-14.6 441.95-7.6Q441.95-6.85 442.75-5.68 443.55-4.5 444.95-3.58 446.35-2.65 448.1-2.65ZM464.89 0L464.89 0Q464.24 0 463.77-0.4 463.29-0.8 463.29-1.3L463.29-1.3 463.29-36.95Q463.29-37.5 463.77-37.83 464.24-38.15 464.89-38.15L464.89-38.15Q465.59-38.15 466.07-37.83 466.54-37.5 466.54-36.95L466.54-36.95 466.54-1.3Q466.54-0.8 466.07-0.4 465.59 0 464.89 0ZM474.89-30.65L474.89-30.65Q473.99-30.65 473.34-31.28 472.69-31.9 472.69-32.75L472.69-32.75Q472.69-33.6 473.34-34.2 473.99-34.8 474.89-34.8L474.89-34.8Q475.79-34.8 476.44-34.2 477.09-33.6 477.09-32.75L477.09-32.75Q477.09-31.9 476.44-31.28 475.79-30.65 474.89-30.65ZM474.84 0L474.84 0Q474.19 0 473.72-0.4 473.24-0.8 473.24-1.3L473.24-1.3 473.24-22.45Q473.24-23 473.72-23.33 474.19-23.65 474.84-23.65L474.84-23.65Q475.54-23.65 476.02-23.33 476.49-23 476.49-22.45L476.49-22.45 476.49-1.3Q476.49-0.8 476.02-0.4 475.54 0 474.84 0ZM491.59 0.35L491.59 0.35Q488.29 0.35 486.14-0.9 483.99-2.15 482.94-4.3 481.89-6.45 481.89-9.15L481.89-9.15 481.89-14.5Q481.89-17.15 482.91-19.3 483.94-21.45 486.11-22.7 488.29-23.95 491.59-23.95L491.59-23.95Q493.69-23.95 495.26-23.43 496.84-22.9 497.71-22.15 498.59-21.4 498.59-20.7L498.59-20.7Q498.59-20.4 498.41-20.03 498.24-19.65 497.91-19.38 497.59-19.1 497.19-19.1L497.19-19.1Q496.74-19.1 496.16-19.58 495.59-20.05 494.59-20.5 493.59-20.95 491.74-20.95L491.74-20.95Q488.49-20.95 486.81-19.23 485.14-17.5 485.14-14.5L485.14-14.5 485.14-9.15Q485.14-6.1 486.81-4.38 488.49-2.65 491.79-2.65L491.79-2.65Q493.69-2.65 494.74-3.13 495.79-3.6 496.36-4.08 496.94-4.55 497.44-4.55L497.44-4.55Q497.89-4.55 498.21-4.3 498.54-4.05 498.71-3.7 498.89-3.35 498.89-2.95L498.89-2.95Q498.89-2.3 497.99-1.53 497.09-0.75 495.46-0.2 493.84 0.35 491.59 0.35ZM508.54 0.35L508.54 0.35Q505.74 0.35 503.74-1.28 501.74-2.9 501.74-6.25L501.74-6.25Q501.74-9 503.21-10.48 504.69-11.95 507.31-12.53 509.94-13.1 513.39-13.1L513.39-13.1 515.94-13.1 515.94-14.3Q515.94-15.9 515.36-17.48 514.79-19.05 513.51-20.08 512.24-21.1 510.04-21.1L510.04-21.1Q508.39-21.1 507.34-20.75 506.29-20.4 505.69-20.03 505.09-19.65 504.69-19.65L504.69-19.65Q504.09-19.65 503.74-20.25 503.39-20.85 503.39-21.4L503.39-21.4Q503.39-22.05 504.41-22.63 505.44-23.2 507.01-23.58 508.59-23.95 510.14-23.95L510.14-23.95Q513.49-23.95 515.46-22.58 517.44-21.2 518.31-19 519.19-16.8 519.19-14.3L519.19-14.3 519.19-1.3Q519.19-0.75 518.76-0.38 518.34 0 517.59 0L517.59 0Q516.99 0 516.54-0.38 516.09-0.75 516.09-1.3L516.09-1.3 516.09-3.5Q514.79-2.05 512.94-0.85 511.09 0.35 508.54 0.35ZM509.34-2.4L509.34-2.4Q510.99-2.4 512.49-3.25 513.99-4.1 514.96-5.33 515.94-6.55 515.94-7.65L515.94-7.65 515.94-10.85 513.84-10.85Q511.59-10.85 509.56-10.58 507.54-10.3 506.26-9.4 504.99-8.5 504.99-6.55L504.99-6.55Q504.99-4.4 506.26-3.4 507.54-2.4 509.34-2.4ZM534.43 0L533.03 0Q529.18 0 527.13-1.75 525.08-3.5 525.08-7.35L525.08-7.35 525.08-33.7Q525.08-34.25 525.61-34.58 526.13-34.9 526.68-34.9L526.68-34.9Q527.33-34.9 527.83-34.58 528.33-34.25 528.33-33.7L528.33-33.7 528.33-23.65 534.83-23.65Q535.33-23.65 535.63-23.25 535.93-22.85 535.93-22.3L535.93-22.3Q535.93-21.75 535.63-21.35 535.33-20.95 534.83-20.95L534.83-20.95 528.33-20.95 528.33-7.35Q528.33-4.9 529.38-3.93 530.43-2.95 533.03-2.95L533.03-2.95 534.43-2.95Q535.13-2.95 535.51-2.53 535.88-2.1 535.88-1.5L535.88-1.5Q535.88-0.9 535.51-0.45 535.13 0 534.43 0L534.43 0ZM541.58-30.65L541.58-30.65Q540.68-30.65 540.03-31.28 539.38-31.9 539.38-32.75L539.38-32.75Q539.38-33.6 540.03-34.2 540.68-34.8 541.58-34.8L541.58-34.8Q542.48-34.8 543.13-34.2 543.78-33.6 543.78-32.75L543.78-32.75Q543.78-31.9 543.13-31.28 542.48-30.65 541.58-30.65ZM541.53 0L541.53 0Q540.88 0 540.41-0.4 539.93-0.8 539.93-1.3L539.93-1.3 539.93-22.45Q539.93-23 540.41-23.33 540.88-23.65 541.53-23.65L541.53-23.65Q542.23-23.65 542.71-23.33 543.18-23 543.18-22.45L543.18-22.45 543.18-1.3Q543.18-0.8 542.71-0.4 542.23 0 541.53 0ZM557.98 0.35L557.98 0.35Q555.43 0.35 553.28-0.98 551.13-2.3 549.8-4.48 548.48-6.65 548.48-9.15L548.48-9.15 548.48-14.6Q548.48-17.1 549.78-19.23 551.08-21.35 553.23-22.65 555.38-23.95 557.98-23.95L557.98-23.95Q560.53-23.95 562.7-22.68 564.88-21.4 566.18-19.3 567.48-17.2 567.48-14.6L567.48-14.6 567.48-9.15Q567.48-6.7 566.18-4.5 564.88-2.3 562.7-0.98 560.53 0.35 557.98 0.35ZM557.98-2.65L557.98-2.65Q559.73-2.65 561.13-3.58 562.53-4.5 563.38-6 564.23-7.5 564.23-9.15L564.23-9.15 564.23-14.6Q564.23-16.2 563.4-17.65 562.58-19.1 561.15-20.03 559.73-20.95 557.98-20.95L557.98-20.95Q556.23-20.95 554.83-20.03 553.43-19.1 552.58-17.65 551.73-16.2 551.73-14.6L551.73-14.6 551.73-9.15Q551.73-7.5 552.58-6 553.43-4.5 554.85-3.58 556.28-2.65 557.98-2.65ZM574.43 0L574.43 0Q573.78 0 573.3-0.4 572.83-0.8 572.83-1.3L572.83-1.3 572.83-22.45Q572.83-23 573.3-23.33 573.78-23.65 574.43-23.65L574.43-23.65Q575.08-23.65 575.53-23.33 575.98-23 575.98-22.45L575.98-22.45 575.98-20.15Q576.78-21.6 578.48-22.78 580.18-23.95 582.68-23.95L582.68-23.95Q585.08-23.95 587.1-22.68 589.13-21.4 590.33-19.3 591.53-17.2 591.53-14.6L591.53-14.6 591.53-1.3Q591.53-0.65 591.03-0.33 590.53 0 589.88 0L589.88 0Q589.33 0 588.8-0.33 588.28-0.65 588.28-1.3L588.28-1.3 588.28-14.6Q588.28-16.2 587.43-17.65 586.58-19.1 585.18-20.03 583.78-20.95 582.08-20.95L582.08-20.95Q580.58-20.95 579.2-20.18 577.83-19.4 576.95-18 576.08-16.6 576.08-14.6L576.08-14.6 576.08-1.3Q576.08-0.8 575.6-0.4 575.13 0 574.43 0Z" opacity="1" transform="matrix(1,0,0,1,0,0)" fill="#4b91f1" class="slogan-text-1" data-fill-palette-color="secondary" id="text-1"></path></svg></g></svg></g></svg></g></svg></g><g transform="matrix(1,0,0,1,118.33173679282696,0)"><svg viewBox="0 0 158.85652641434606 158.85652641434606" height="158.85652641434606" width="158.85652641434606"><g><svg xmlns="http://www.w3.org/2000/svg" xmlns:xlink="http://www.w3.org/1999/xlink" version="1.0" x="0" y="0" viewBox="2 2 20 20" enable-background="new 0 0 24 24" xml:space="preserve" height="158.85652641434606" width="158.85652641434606" class="icon-icon-0" data-fill-palette-color="accent" id="icon-0"><g fill="#4b91f1" data-fill-palette-color="accent"><path d="M12 8c-0.6 0-1 0.4-1 1v1h2V9C13 8.4 12.6 8 12 8z" fill="#4b91f1" data-fill-palette-color="accent"></path><circle cx="12" cy="13.5" r="1.0" fill="#4b91f1" data-fill-palette-color="accent"></circle><path d="M12 2C6.5 2 2 6.5 2 12c0 5.5 4.5 10 10 10s10-4.5 10-10C22 6.5 17.5 2 12 2zM16 16c0 0.6-0.4 1-1 1H9c-0.6 0-1-0.4-1-1v-5c0-0.6 0.4-1 1-1V9c0-1.7 1.3-3 3-3s3 1.3 3 3v1c0.6 0 1 0.4 1 1V16z" fill="#4b91f1" data-fill-palette-color="accent"></path></g></svg></g></svg></g><g></g></svg></g></svg></g><defs></defs></svg><rect width="335.03895352044526" height="247.2" fill="none" stroke="none" visibility="hidden"></rect></g></svg></g></svg>